<svg xmlns="http://www.w3.org/2000/svg" viewBox="0 0 128 128">
  <rect width="128" height="128" rx="26" fill="#171717"/>
  <g fill="none" stroke="#d8a443" stroke-width="6" stroke-linecap="round" stroke-linejoin="round">
    <path d="M64 91C45 79 37 59 42 37c14 7 21 24 22 54Z"/>
    <path d="M64 91c19-12 27-32 22-54-14 7-21 24-22 54Z"/>
    <path d="M64 89C51 70 51 47 64 25c13 22 13 45 0 64Z"/>
    <path d="M46 84c-15-6-23-17-24-31 17 3 29 14 36 34"/>
    <path d="M82 84c15-6 23-17 24-31-17 3-29 14-36 34"/>
    <path d="M35 101h58"/>
  </g>
</svg>
